<svg width="38" height="59" viewBox="0 0 38 59" xmlns="http://www.w3.org/2000/svg">
  <g id="Page-5" fill="none" fill-rule="evenodd">
    <g id="DW_Site_Mockup_v3.0_LQ" transform="translate(-593 -2681)" fill="#0B0B09">
      <g id="Group-232" transform="translate(0 500)">
        <g id="Group" transform="translate(593 2181)">
          <path d="M9.04 13.66c0 5.94 4.01 9.95 9.86 9.95h.1c5.84 0 9.94-4 9.94-9.95V8.05H9.04v5.61zM35.5.79v12.87c0 10.37-7.12 17.54-16.41 17.54h-.1c-9.29 0-16.5-7.17-16.5-17.54V.79h33z" id="Fill-220"/>
          <path id="Fill-222" d="M30.7 35.67l-4.26 13.08-4.24-13.08h-6.37l-4.28 13.08L7.3 35.67H.94l7.41 22.8h6.36L19 45.4l4.24 13.06h6.36l7.46-22.8z"/>
        </g>
      </g>
    </g>
  </g>
</svg>
