<svg width="112" height="33" viewBox="0 0 112 33" xmlns="http://www.w3.org/2000/svg">
  <g id="Page-3" fill="none" fill-rule="evenodd">
    <g id="DW_Site_Mockup_v3.0_LQ" transform="translate(-555 -28)" fill="#1C1B19">
      <g id="Group-114" transform="translate(555 28.75)">
        <path d="M5.29 9.17c1.99 0 3.33-1.34 3.33-3.3v-.03A3.18 3.18 0 0 0 5.29 2.5H3.4v6.67h1.88zM.97.31H5.3c3.47 0 5.87 2.38 5.87 5.5v.03c0 3.11-2.4 5.53-5.87 5.53H.97V.3z" id="Fill-90"/>
        <path d="M23.63 6.74l-1.47-3.59-1.47 3.59h2.94zM21.07.23h2.24l4.74 11.14h-2.54L24.5 8.89h-4.68l-1 2.48h-2.49L21.07.23z" id="Fill-92"/>
        <path id="Fill-94" d="M34.5.31h2.24l5.18 6.8V.32h2.4v11.06h-2.07L36.9 4.34v7.03h-2.4z"/>
        <path id="Fill-96" d="M51.72.31h8.42v2.21h-5.99v2.35h5.28V7.1h-5.28v4.28h-2.43z"/>
        <path d="M75.54 5.87v-.03c0-1.9-1.39-3.48-3.35-3.48-1.95 0-3.31 1.55-3.31 3.45v.03c0 1.9 1.39 3.47 3.35 3.47 1.95 0 3.31-1.54 3.31-3.44m-9.2 0v-.03A5.72 5.72 0 0 1 72.22.12a5.66 5.66 0 0 1 5.86 5.69v.03a5.72 5.72 0 0 1-5.9 5.72 5.67 5.67 0 0 1-5.86-5.69" id="Fill-98"/>
        <path d="M89.89 5.68c1.18 0 1.86-.63 1.86-1.56v-.03c0-1.05-.72-1.58-1.9-1.58h-2.43v3.17h2.47zM84.99.31h5.06c1.4 0 2.5.4 3.22 1.12.62.62.95 1.49.95 2.53v.03c0 1.79-.97 2.9-2.37 3.43l2.7 3.95H91.7l-2.36-3.54h-1.92v3.54H85V.3z" id="Fill-100"/>
        <path d="M105.47 9.17c1.99 0 3.33-1.34 3.33-3.3v-.03a3.18 3.18 0 0 0-3.33-3.34h-1.88v6.67h1.88zM101.15.31h4.32c3.47 0 5.87 2.38 5.87 5.5v.03c0 3.11-2.4 5.53-5.87 5.53h-4.32V.3z" id="Fill-102"/>
        <path id="Fill-104" d="M14.71 20.64h2.6l2.3 7.49 2.48-7.52h2.08l2.48 7.52 2.3-7.5h2.54L27.7 31.78H25.6l-2.5-7.23-2.5 7.23H18.5z"/>
        <path d="M46.12 26.2v-.03c0-1.9-1.4-3.48-3.35-3.48-1.96 0-3.32 1.55-3.32 3.45v.03c0 1.9 1.4 3.47 3.35 3.47 1.96 0 3.32-1.55 3.32-3.44m-9.21 0v-.03a5.72 5.72 0 0 1 5.9-5.72 5.66 5.66 0 0 1 5.85 5.69v.03a5.72 5.72 0 0 1-5.9 5.72 5.67 5.67 0 0 1-5.85-5.7" id="Fill-106"/>
        <path d="M60.46 26c1.19 0 1.87-.62 1.87-1.56v-.03c0-1.04-.73-1.58-1.91-1.58H58v3.18h2.46zm-4.9-5.36h5.06c1.4 0 2.5.4 3.22 1.12.62.62.95 1.48.95 2.53v.03c0 1.78-.96 2.9-2.37 3.43l2.7 3.95h-2.84l-2.37-3.54H58v3.54h-2.43V20.64z" id="Fill-108"/>
        <path id="Fill-110" d="M71.73 20.64h2.43v4.83l4.49-4.83h2.94l-4.5 4.69 4.7 6.37h-2.92l-3.43-4.71-1.28 1.32v3.39h-2.43z"/>
        <path d="M87.09 30.08l1.43-1.72c1 .82 2.04 1.34 3.3 1.34 1 0 1.6-.39 1.6-1.04v-.03c0-.61-.38-.93-2.23-1.4-2.22-.57-3.66-1.19-3.66-3.39v-.03c0-2 1.6-3.33 3.87-3.33 1.6 0 2.98.5 4.1 1.4l-1.26 1.84a5.19 5.19 0 0 0-2.87-1.1c-.94 0-1.43.43-1.43.97v.03c0 .73.48.97 2.39 1.46 2.24.58 3.5 1.39 3.5 3.31v.04c0 2.2-1.67 3.42-4.05 3.42a7.04 7.04 0 0 1-4.7-1.77" id="Fill-112"/>
      </g>
    </g>
  </g>
</svg>
